# File created by Blade
# Date/Time:  Wed Jan 21 17:34:04 2015
# Frame Rate: 120.000 fps
#------------------------------------------------------
:FULLY-SPECIFIED
:DEGREES
1118
root 19.637546 5.202373 -19.387548 -172.574290 -23.837513 -141.095719
Spine 4.824118 -4.463353 29.446210
Head -19.329327 -23.440989 25.738545
LeftShoulder -8.157009 -14.343694 10.780210
LeftArm -36.364915 10.014846 -88.644493
LeftForeArm 7.370934 -0.000000 44.775244
LeftHand -3.197918 -0.000000 11.155175
LeftHandThumb1 -26.253704 0.000000 33.147579
RightShoulder -18.941935 -6.787314 8.655146
RightArm -21.164733 42.753611 49.190108
RightForeArm 8.433633 -0.000000 15.649135
RightHand -14.904731 -0.000000 -6.289218
RightHandThumb1 -24.326973 -0.000000 -32.862282
LeftUpLeg -104.405534 -22.019384 -49.503011
LeftLeg 135.916655 -0.000000 -0.000000
LeftFoot 28.773926 14.016075 10.175323
LeftToeBase 29.113887 -0.000000 -0.000000
RightUpLeg 8.669604 -0.567015 -24.767635
RightLeg 88.749496 -0.000000 -0.000000
RightFoot 38.947760 -23.057626 -12.877837
RightToeBase 20.054242 -0.000000 -0.000000
1119
root 19.619569 5.207257 -19.358115 -172.723957 -23.547353 -140.955882
Spine 5.317095 -4.217491 29.142811
Head -19.287056 -23.528554 26.241838
LeftShoulder -7.840845 -14.420559 10.951672
LeftArm -36.722423 10.563756 -89.100306
LeftForeArm 7.036469 -0.000000 45.418753
LeftHand -3.517551 -0.000000 11.933703
LeftHandThumb1 -26.253704 0.000000 33.147579
RightShoulder -18.962833 -6.705371 9.252783
RightArm -20.059368 41.216549 50.677618
RightForeArm 7.992485 -0.000000 15.743275
RightHand -14.771649 0.000000 -5.394179
RightHandThumb1 -24.326973 -0.000000 -32.862282
LeftUpLeg -104.487812 -21.807372 -49.347495
LeftLeg 135.855277 -0.000000 -0.000000
LeftFoot 28.767841 13.903425 10.332275
LeftToeBase 29.112107 -0.000000 -0.000000
RightUpLeg 8.451055 -1.062824 -24.778982
RightLeg 88.768509 -0.000000 -0.000000
RightFoot 38.930435 -23.344763 -12.860033
RightToeBase 20.091830 -0.000000 -0.000000
1120
root 19.605255 5.210908 -19.339617 -172.916915 -23.327746 -140.859007
Spine 5.799761 -4.105017 28.753266
Head -19.181076 -23.625773 26.785950
LeftShoulder -7.554508 -14.463118 11.122863
LeftArm -37.088636 11.105110 -89.483586
LeftForeArm 6.741775 -0.000000 46.117860
LeftHand -3.878519 0.000000 12.633571
LeftHandThumb1 -26.253704 0.000000 33.147579
RightShoulder -18.928363 -6.589736 9.892141
RightArm -19.199973 39.634260 51.988394
RightForeArm 7.732458 -0.000000 16.037192
RightHand -14.502194 -0.000000 -4.606682
RightHandThumb1 -24.326973 -0.000000 -32.862282
LeftUpLeg -104.488914 -21.585801 -49.257821
LeftLeg 135.813366 -0.000000 -0.000000
LeftFoot 28.813525 13.886120 10.352156
LeftToeBase 29.109589 -0.000000 -0.000000
RightUpLeg 8.360080 -1.568600 -24.815509
RightLeg 88.809334 -0.000000 -0.000000
RightFoot 38.952235 -23.431188 -13.079264
RightToeBase 19.665722 -0.000000 -0.000000
1121
root 19.586770 5.218602 -19.314948 -173.131033 -23.050856 -140.678598
Spine 6.281490 -3.930327 28.488063
Head -19.032616 -23.764590 27.269947
LeftShoulder -7.178222 -14.525313 11.243366
LeftArm -37.498019 11.584887 -89.909518
LeftForeArm 6.398349 -0.000000 46.778838
LeftHand -4.188934 -0.000000 13.509179
LeftHandThumb1 -26.253704 0.000000 33.147579
RightShoulder -18.927404 -6.725973 10.476563
RightArm -18.079422 38.657637 53.348455
RightForeArm 7.056423 -0.000000 16.151985
RightHand -14.306063 -0.000000 -3.832938
RightHandThumb1 -24.326973 -0.000000 -32.862282
LeftUpLeg -104.541608 -21.340852 -49.073189
LeftLeg 135.770168 -0.000000 -0.000000
LeftFoot 28.832996 13.813594 10.401419
LeftToeBase 28.942773 -0.000000 -0.000000
RightUpLeg 8.175530 -1.983433 -24.775396
RightLeg 88.863926 -0.000000 -0.000000
RightFoot 38.881013 -23.756751 -13.090272
RightToeBase 19.889908 -0.000000 -0.000000
1122
root 19.570096 5.228604 -19.292911 -173.371326 -22.779953 -140.481855
Spine 6.768553 -3.813705 28.247337
Head -18.836119 -23.845509 27.634189
LeftShoulder -6.847966 -14.421631 11.300475
LeftArm -37.763602 12.137567 -90.273225
LeftForeArm 5.992097 -0.000000 47.490386
LeftHand -4.546416 0.000000 14.337324
LeftHandThumb1 -26.253704 0.000000 33.147579
RightShoulder -18.900945 -6.754047 10.954024
RightArm -17.155777 37.314380 54.696416
RightForeArm 6.460481 -0.000000 16.522312
RightHand -14.338682 -0.000000 -3.197345
RightHandThumb1 -24.326973 -0.000000 -32.862282
LeftUpLeg -104.587262 -21.077100 -48.866098
LeftLeg 135.744980 -0.000000 -0.000000
LeftFoot 28.830284 13.722081 10.494952
LeftToeBase 28.786996 -0.000000 -0.000000
RightUpLeg 8.005484 -2.372283 -24.714014
RightLeg 88.946982 -0.000000 -0.000000
RightFoot 38.897378 -24.121513 -13.240444
RightToeBase 19.786277 -0.000000 -0.000000
1123
root 19.553783 5.242987 -19.266010 -173.631642 -22.461818 -140.240051
Spine 7.284824 -3.676738 28.046677
Head -18.642884 -23.920791 28.010451
LeftShoulder -6.493283 -14.420243 11.341413
LeftArm -38.159493 12.676362 -90.663973
LeftForeArm 5.548697 -0.000000 48.231362
LeftHand -4.868704 -0.000000 15.232556
LeftHandThumb1 -26.253704 0.000000 33.147579
RightShoulder -18.832356 -6.943817 11.419416
RightArm -16.006754 35.971304 56.157828
RightForeArm 5.623004 -0.000000 16.743410
RightHand -14.256759 0.000000 -2.686799
RightHandThumb1 -24.326973 -0.000000 -32.862282
LeftUpLeg -104.663401 -20.771350 -48.624543
LeftLeg 135.713059 -0.000000 -0.000000
LeftFoot 28.861843 13.630127 10.658322
LeftToeBase 28.633981 -0.000000 -0.000000
RightUpLeg 7.776460 -2.654507 -24.597038
RightLeg 89.094063 -0.000000 -0.000000
RightFoot 38.861088 -24.395403 -13.392108
RightToeBase 19.766033 -0.000000 -0.000000
1124
root 19.538074 5.258962 -19.244365 -173.905198 -22.150576 -139.916892
Spine 7.740779 -3.535321 27.947547
Head -18.397235 -24.021704 28.338752
LeftShoulder -6.107778 -14.423990 11.353999
LeftArm -38.618610 13.202717 -91.074652
LeftForeArm 5.130567 -0.000000 48.977049
LeftHand -5.197211 0.000000 16.216595
LeftHandThumb1 -26.253704 0.000000 33.147579
RightShoulder -18.720387 -7.136224 11.834952
RightArm -14.910411 34.111280 57.558977
RightForeArm 4.790228 0.000000 16.951022
RightHand -14.199093 -0.000000 -2.150990
RightHandThumb1 -24.326973 -0.000000 -32.862282
LeftUpLeg -104.769824 -20.480094 -48.311436
LeftLeg 135.708533 -0.000000 -0.000000
LeftFoot 28.846192 13.549974 10.760355
LeftToeBase 28.456212 -0.000000 -0.000000
RightUpLeg 7.525445 -2.911028 -24.355320
RightLeg 89.274283 -0.000000 -0.000000
RightFoot 38.801957 -24.604713 -13.705637
RightToeBase 19.891225 -0.000000 -0.000000
1125
root 19.520929 5.273437 -19.216009 -174.113575 -21.839612 -139.611319
Spine 8.113130 -3.380204 27.841782
Head -18.088771 -24.119555 28.631142
LeftShoulder -5.744430 -14.382709 11.377084
LeftArm -39.033648 13.721435 -91.487839
LeftForeArm 4.631511 0.000000 49.707890
LeftHand -5.550404 -0.000000 17.208385
LeftHandThumb1 -26.253704 0.000000 33.147579
RightShoulder -18.599772 -7.346419 12.178987
RightArm -13.828977 31.656847 58.958687
RightForeArm 4.160361 -0.000000 17.119569
RightHand -14.024725 -0.000000 -1.603941
RightHandThumb1 -24.326973 -0.000000 -32.862282
LeftUpLeg -104.884951 -20.229059 -48.012695
LeftLeg 135.680585 -0.000000 -0.000000
LeftFoot 28.821745 13.408535 10.992528
LeftToeBase 28.408774 -0.000000 -0.000000
RightUpLeg 7.210691 -3.132269 -24.146262
RightLeg 89.440355 -0.000000 -0.000000
RightFoot 38.709384 -25.050061 -13.638196
RightToeBase 19.671017 -0.000000 -0.000000
1126
root 19.503284 5.287006 -19.189400 -174.362401 -21.532110 -139.373122
Spine 8.557670 -3.252592 27.635700
Head -17.852651 -24.262376 29.027440
LeftShoulder -5.431658 -14.397693 11.463662
LeftArm -39.440206 14.290732 -91.929298
LeftForeArm 4.029168 -0.000000 50.387653
LeftHand -5.863133 -0.000000 18.140138
LeftHandThumb1 -26.253704 0.000000 33.147579
RightShoulder -18.475108 -7.522077 12.593367
RightArm -12.847261 29.408016 60.115219
RightForeArm 3.315053 -0.000000 17.333131
RightHand -13.685328 0.000000 -0.614486
RightHandThumb1 -24.326973 -0.000000 -32.862282
LeftUpLeg -104.942127 -19.931579 -47.786041
LeftLeg 135.637602 -0.000000 -0.000000
LeftFoot 28.822165 13.385818 11.070637
LeftToeBase 28.313469 -0.000000 -0.000000
RightUpLeg 6.962506 -3.346894 -24.036203
RightLeg 89.658098 -0.000000 -0.000000
RightFoot 38.547005 -25.523556 -13.710388
RightToeBase 19.715241 -0.000000 -0.000000
1127
root 19.480892 5.302930 -19.158978 -174.568657 -21.205444 -139.082398
Spine 8.929315 -3.123643 27.533812
Head -17.582915 -24.339341 29.295819
LeftShoulder -5.205085 -14.415682 11.519619
LeftArm -39.830940 14.920311 -92.410543
LeftForeArm 3.527049 -0.000000 50.967835
LeftHand -6.135971 -0.000000 19.184144
LeftHandThumb1 -26.253704 0.000000 33.147579
RightShoulder -18.448645 -7.689227 12.916627
RightArm -11.793484 27.964773 61.014823
RightForeArm 1.721920 -0.000000 17.173332
RightHand -13.005066 0.000000 1.016638
RightHandThumb1 -24.326973 -0.000000 -32.862282
LeftUpLeg -105.063238 -19.667074 -47.472228
LeftLeg 135.591857 -0.000000 -0.000000
LeftFoot 28.844759 13.283592 11.212875
LeftToeBase 28.167887 -0.000000 -0.000000
RightUpLeg 6.641653 -3.508358 -23.844495
RightLeg 89.887612 -0.000000 -0.000000
RightFoot 38.369951 -26.011548 -13.811624
RightToeBase 19.774385 -0.000000 -0.000000
1128
root 19.458183 5.317928 -19.126971 -174.764511 -20.854985 -138.803329
Spine 9.287917 -3.014240 27.405605
Head -17.233578 -24.363845 29.569004
LeftShoulder -5.005136 -14.390300 11.607868
LeftArm -40.156719 15.343263 -92.775112
LeftForeArm 3.037423 -0.000000 51.528863
LeftHand -6.407484 -0.000000 19.770282
LeftHandThumb1 -26.253704 0.000000 33.147579
RightShoulder -18.312750 -7.705542 13.199542
RightArm -11.157463 26.503327 61.714541
RightForeArm 0.478402 0.000000 17.364311
RightHand -12.484913 -0.000000 2.151080
RightHandThumb1 -24.326973 -0.000000 -32.862282
LeftUpLeg -105.195812 -19.392807 -47.166290
LeftLeg 135.542396 -0.000000 -0.000000
LeftFoot 28.849948 13.195429 11.346750
LeftToeBase 28.124624 -0.000000 -0.000000
RightUpLeg 6.283325 -3.594226 -23.661813
RightLeg 90.163379 -0.000000 -0.000000
RightFoot 38.282342 -26.501812 -13.963986
RightToeBase 19.671285 -0.000000 -0.000000
